<svg width="424" height="424" viewBox="0 0 424 424" fill="none" xmlns="http://www.w3.org/2000/svg">
<g opacity="0.6" filter="url(#filter0_ii_153_56)">
<mask id="mask0_153_56" style="mask-type:alpha" maskUnits="userSpaceOnUse" x="60" y="60" width="304" height="304">
<path d="M138.965 78.9743C138.398 61.9856 159.271 53.4593 170.761 65.9861L235.179 136.219C238.791 140.157 243.944 142.32 249.285 142.142L344.533 138.965C361.521 138.398 370.048 159.271 357.521 170.761L287.288 235.179C283.35 238.791 281.187 243.944 281.365 249.285L284.542 344.533C285.109 361.521 264.236 370.048 252.746 357.521L188.328 287.288C184.716 283.35 179.563 281.186 174.222 281.365L78.9743 284.542C61.9856 285.109 53.4593 264.236 65.9861 252.746L136.219 188.328C140.157 184.716 142.32 179.563 142.142 174.222L138.965 78.9743Z" fill="white"/>
</mask>
<g mask="url(#mask0_153_56)">
<rect x="-23.3365" y="65.694" width="386.514" height="386.514" transform="rotate(-22.2192 -23.3365 65.694)" fill="#ADA5FE" style="mix-blend-mode:soft-light"/>
</g>
</g>
<defs>
<filter id="filter0_ii_153_56" x="54.0101" y="54.0102" width="313.487" height="313.487" filterUnits="userSpaceOnUse" color-interpolation-filters="sRGB">
<feFlood flood-opacity="0" result="BackgroundImageFix"/>
<feBlend mode="normal" in="SourceGraphic" in2="BackgroundImageFix" result="shape"/>
<feColorMatrix in="SourceAlpha" type="matrix" values="0 0 0 0 0 0 0 0 0 0 0 0 0 0 0 0 0 0 127 0" result="hardAlpha"/>
<feOffset dx="-6" dy="-6"/>
<feGaussianBlur stdDeviation="4"/>
<feComposite in2="hardAlpha" operator="arithmetic" k2="-1" k3="1"/>
<feColorMatrix type="matrix" values="0 0 0 0 0 0 0 0 0 0 0 0 0 0 0 0 0 0 0.2 0"/>
<feBlend mode="normal" in2="shape" result="effect1_innerShadow_153_56"/>
<feColorMatrix in="SourceAlpha" type="matrix" values="0 0 0 0 0 0 0 0 0 0 0 0 0 0 0 0 0 0 127 0" result="hardAlpha"/>
<feOffset dx="6" dy="6"/>
<feGaussianBlur stdDeviation="2"/>
<feComposite in2="hardAlpha" operator="arithmetic" k2="-1" k3="1"/>
<feColorMatrix type="matrix" values="0 0 0 0 1 0 0 0 0 1 0 0 0 0 1 0 0 0 0.25 0"/>
<feBlend mode="normal" in2="effect1_innerShadow_153_56" result="effect2_innerShadow_153_56"/>
</filter>
</defs>
</svg>
